<svg xmlns="http://www.w3.org/2000/svg" width="128" height="119" fill="none" viewBox="0 0 128 119"><path fill="#000" fill-opacity=".85" d="M26.3 101.766A73.694 73.694 0 0 1 14.197 1.851c1.6-2.19 4.71-2.451 6.788-.708 2.076 1.744 2.33 4.831.752 7.037a63.867 63.867 0 0 0 10.872 86.062 63.79 63.79 0 0 0 86.598-4.232c1.896-1.937 4.979-2.224 7.056-.48 2.076 1.743 2.358 4.854.482 6.81a73.62 73.62 0 0 1-46.705 22.38 73.6 73.6 0 0 1-53.74-16.954"/><path fill="#000" fill-opacity=".425" d="M77.808 58.465c.656-3.723 5.094-5.34 7.988-2.91l25.047 21.029c2.077 1.743 2.362 4.86.437 6.768a53.5 53.5 0 0 1-35.045 15.444c-2.94.143-5.083-2.57-4.572-5.47zm-51.043-2.597c-2.757 1.004-5.792-.622-6.177-3.532a53.55 53.55 0 0 1 9.078-37.503c1.545-2.229 4.662-2.488 6.738-.745l25.28 21.224c2.895 2.43 2.075 7.084-1.476 8.377zm34.422-2.082c3.55-1.293 7.168 1.744 6.512 5.467l-6.09 34.562c-.337 1.911-2.221 3.151-4.071 2.568A53.52 53.52 0 0 1 26.173 70.05c-.828-1.593-.007-3.512 1.678-4.126z"/></svg>